<svg width="113" height="20" fill="none" xmlns="http://www.w3.org/2000/svg"><path d="M24.092 16.39V.646h-3.236v18.652H34.35V16.39H24.092ZM47.569.646v13.715l-2.03 2.03h-4.772l-1.893-1.893V.646h-3.236v15.031l3.648 3.62h7.734l3.648-3.62V.647H47.57ZM66.216 9.753l1.892-1.893V3.664L65.091.646H53.324v18.652H65.64l3.017-3.017v-4.087l-2.441-2.441Zm-9.655-6.2h7.021l1.29 1.263v2.276l-1.4 1.372h-6.911v-4.91Zm7.57 12.837h-7.57v-5.046h7.076l1.783 1.81v1.975l-1.289 1.261ZM79.926 3.554V.646H69.86v2.908h3.401V16.39H69.86v2.907h10.066V16.39h-3.428V3.553h3.428ZM96.472 3.554V.646h-14.51v18.652h14.51V16.39H85.2v-5.047H95.1v-2.88h-9.902v-4.91h11.273ZM110.176 8.71l-7.982-.52-1.124-1.125v-2.14l1.398-1.399h5.843l2.194 2.167 2.167-2.167-2.853-2.88h-8.887l-3.099 3.1v4.47l2.798 2.799 8.009.548 1.124 1.097v2.36l-1.398 1.398h-6.528l-2.304-2.277-2.195 2.167 2.99 2.99h9.573l3.099-3.1v-4.69l-2.825-2.797Z" fill="#fff"/><path d="M3.21 3.219h13.702v13.828H3.211V3.219Z" fill="#256ED2"/><path d="m16.912 14.037-2.229 2.4H5.144l-1.898-1.898V5.46l1.898-1.899h9.347l2.42 2.421 2.201-2.173L15.976.646H3.66L0 4.278v11.444l3.659 3.63h12.51l3.136-3.163-2.393-2.152Z" fill="#fff"/><path d="M8.367 13.19h3.216v.964H8.367v-.964ZM11.582 12.225h.965v.965h-.965zM7.402 12.225h.965v.965h-.965z" fill="#000"/><path fill="#fff" d="M5.797 6.112H8.37v3.859H5.797z"/><path fill="#000" d="M7.082 8.042h1.286v1.929H7.082z"/><path fill="#fff" d="M11.59 6.113h2.573v3.859H11.59z"/><path fill="#000" d="M12.875 8.043h1.286v1.929h-1.286z"/></svg>